<?xml version="1.0" encoding="utf-8"?>
<!-- Generator: Adobe Illustrator 26.1.0, SVG Export Plug-In . SVG Version: 6.00 Build 0)  -->
<svg version="1.1" id="svg3265" xmlns:svg="http://www.w3.org/2000/svg"
	 xmlns="http://www.w3.org/2000/svg" xmlns:xlink="http://www.w3.org/1999/xlink" x="0px" y="0px" viewBox="0 0 295 295.5"
	 style="enable-background:new 0 0 295 295.5;" xml:space="preserve">
<style type="text/css">
	.st0{fill-rule:evenodd;clip-rule:evenodd;}
	.st1{fill-rule:evenodd;clip-rule:evenodd;fill:#878787;}
</style>
<path id="polygon10" class="st0" d="M158,94.4c-33.3,0-54.1,24.9-54.1,53.7c0,28.8,21,52.9,54.1,52.9c10.8,0,21.5-3.6,30.2-9.9
	v-13.7c-8.1,8.1-19.1,13.3-30.6,13.3c-24.9,0-41.3-20.5-41.3-43c0-22.4,16.1-43,41.1-43c11.8,0,22.8,5,30.9,13.3v-13.7
	C179.2,97.7,169.3,94.4,158,94.4z"/>
<path id="path26" class="st1" d="M0,147.7C0,66.1,65.7,0,149,0c36.5,0,69.8,13.2,95.6,35.1v22.7c-23.8-25.2-57.5-41-94.9-41
	c-73,0-130,58.4-130,130.4c0,72,57.1,130.4,130,130.4c37.4,0,71.1-15.7,94.9-41v23.7c-25.8,21.9-59.1,35.1-95.6,35.1
	C65.8,295.5,0,229.3,0,147.7L0,147.7L0,147.7z"/>
</svg>
